<mxfile host="app.diagrams.net" modified="2020-10-05T22:54:54.965Z" agent="5.0 (X11; Linux x86_64) AppleWebKit/537.36 (KHTML, like Gecko) Chrome/85.0.4183.102 Safari/537.36" etag="KiZdA6CoL1OBKRANJBQs" version="13.7.7" type="github">
  <diagram id="R2lEEEUBdFMjLlhIrx00" name="Page-1">
    <mxGraphModel dx="972" dy="793" grid="1" gridSize="10" guides="1" tooltips="1" connect="1" arrows="1" fold="1" page="1" pageScale="1" pageWidth="850" pageHeight="1100" math="0" shadow="0" extFonts="Permanent Marker^https://fonts.googleapis.com/css?family=Permanent+Marker">
      <root>
        <mxCell id="0" />
        <mxCell id="1" parent="0" />
        <mxCell id="0YPiS31dU_EQr1Za0tyZ-1" value="Categoria" style="rounded=0;whiteSpace=wrap;html=1;" vertex="1" parent="1">
          <mxGeometry x="200" y="415" width="120" height="60" as="geometry" />
        </mxCell>
        <mxCell id="0YPiS31dU_EQr1Za0tyZ-2" value="Factura" style="rounded=0;whiteSpace=wrap;html=1;" vertex="1" parent="1">
          <mxGeometry x="570" y="75" width="120" height="60" as="geometry" />
        </mxCell>
        <mxCell id="0YPiS31dU_EQr1Za0tyZ-3" value="Producto" style="rounded=0;whiteSpace=wrap;html=1;" vertex="1" parent="1">
          <mxGeometry x="570" y="415" width="120" height="60" as="geometry" />
        </mxCell>
        <mxCell id="0YPiS31dU_EQr1Za0tyZ-4" value="Cliente&lt;br&gt;" style="rounded=0;whiteSpace=wrap;html=1;" vertex="1" parent="1">
          <mxGeometry x="200" y="75" width="120" height="60" as="geometry" />
        </mxCell>
        <mxCell id="0YPiS31dU_EQr1Za0tyZ-5" value="ID_Cliente" style="ellipse;whiteSpace=wrap;html=1;" vertex="1" parent="1">
          <mxGeometry x="80" y="70" width="80" height="30" as="geometry" />
        </mxCell>
        <mxCell id="0YPiS31dU_EQr1Za0tyZ-6" value="Nombre" style="ellipse;whiteSpace=wrap;html=1;" vertex="1" parent="1">
          <mxGeometry x="80" y="20" width="80" height="30" as="geometry" />
        </mxCell>
        <mxCell id="0YPiS31dU_EQr1Za0tyZ-7" value="RUT" style="ellipse;whiteSpace=wrap;html=1;" vertex="1" parent="1">
          <mxGeometry x="80" y="160" width="80" height="30" as="geometry" />
        </mxCell>
        <mxCell id="0YPiS31dU_EQr1Za0tyZ-8" value="Direccion" style="ellipse;whiteSpace=wrap;html=1;" vertex="1" parent="1">
          <mxGeometry x="80" y="115" width="80" height="30" as="geometry" />
        </mxCell>
        <mxCell id="0YPiS31dU_EQr1Za0tyZ-9" value="" style="endArrow=none;html=1;entryX=0;entryY=0.5;entryDx=0;entryDy=0;exitX=1;exitY=0.5;exitDx=0;exitDy=0;" edge="1" parent="1" source="0YPiS31dU_EQr1Za0tyZ-8" target="0YPiS31dU_EQr1Za0tyZ-4">
          <mxGeometry width="50" height="50" relative="1" as="geometry">
            <mxPoint x="370" y="300" as="sourcePoint" />
            <mxPoint x="420" y="250" as="targetPoint" />
          </mxGeometry>
        </mxCell>
        <mxCell id="0YPiS31dU_EQr1Za0tyZ-10" value="" style="endArrow=none;html=1;entryX=0;entryY=0.25;entryDx=0;entryDy=0;exitX=1;exitY=0.5;exitDx=0;exitDy=0;" edge="1" parent="1" source="0YPiS31dU_EQr1Za0tyZ-5" target="0YPiS31dU_EQr1Za0tyZ-4">
          <mxGeometry width="50" height="50" relative="1" as="geometry">
            <mxPoint x="170" y="140" as="sourcePoint" />
            <mxPoint x="230" y="140" as="targetPoint" />
          </mxGeometry>
        </mxCell>
        <mxCell id="0YPiS31dU_EQr1Za0tyZ-11" value="" style="endArrow=none;html=1;entryX=0;entryY=0;entryDx=0;entryDy=0;exitX=1;exitY=0.5;exitDx=0;exitDy=0;" edge="1" parent="1" source="0YPiS31dU_EQr1Za0tyZ-6" target="0YPiS31dU_EQr1Za0tyZ-4">
          <mxGeometry width="50" height="50" relative="1" as="geometry">
            <mxPoint x="180" y="150" as="sourcePoint" />
            <mxPoint x="240" y="150" as="targetPoint" />
          </mxGeometry>
        </mxCell>
        <mxCell id="0YPiS31dU_EQr1Za0tyZ-12" value="" style="endArrow=none;html=1;entryX=0;entryY=0.75;entryDx=0;entryDy=0;exitX=1;exitY=0.5;exitDx=0;exitDy=0;" edge="1" parent="1" source="0YPiS31dU_EQr1Za0tyZ-7" target="0YPiS31dU_EQr1Za0tyZ-4">
          <mxGeometry width="50" height="50" relative="1" as="geometry">
            <mxPoint x="190" y="160" as="sourcePoint" />
            <mxPoint x="250" y="160" as="targetPoint" />
          </mxGeometry>
        </mxCell>
        <mxCell id="0YPiS31dU_EQr1Za0tyZ-13" value="ID_Producto" style="ellipse;whiteSpace=wrap;html=1;" vertex="1" parent="1">
          <mxGeometry x="740" y="362.5" width="80" height="30" as="geometry" />
        </mxCell>
        <mxCell id="0YPiS31dU_EQr1Za0tyZ-14" value="Nombre" style="ellipse;whiteSpace=wrap;html=1;" vertex="1" parent="1">
          <mxGeometry x="740" y="402.5" width="80" height="30" as="geometry" />
        </mxCell>
        <mxCell id="0YPiS31dU_EQr1Za0tyZ-15" value="Descripcion" style="ellipse;whiteSpace=wrap;html=1;" vertex="1" parent="1">
          <mxGeometry x="740" y="447.5" width="80" height="30" as="geometry" />
        </mxCell>
        <mxCell id="0YPiS31dU_EQr1Za0tyZ-16" value="Valor_Unitario" style="ellipse;whiteSpace=wrap;html=1;" vertex="1" parent="1">
          <mxGeometry x="740" y="497.5" width="80" height="30" as="geometry" />
        </mxCell>
        <mxCell id="0YPiS31dU_EQr1Za0tyZ-18" value="" style="endArrow=none;html=1;entryX=0;entryY=0.5;entryDx=0;entryDy=0;exitX=1;exitY=0;exitDx=0;exitDy=0;" edge="1" parent="1" source="0YPiS31dU_EQr1Za0tyZ-3" target="0YPiS31dU_EQr1Za0tyZ-13">
          <mxGeometry width="50" height="50" relative="1" as="geometry">
            <mxPoint x="390" y="625" as="sourcePoint" />
            <mxPoint x="440" y="575" as="targetPoint" />
          </mxGeometry>
        </mxCell>
        <mxCell id="0YPiS31dU_EQr1Za0tyZ-19" value="" style="endArrow=none;html=1;entryX=0;entryY=0.5;entryDx=0;entryDy=0;exitX=1;exitY=0.25;exitDx=0;exitDy=0;" edge="1" parent="1" source="0YPiS31dU_EQr1Za0tyZ-3" target="0YPiS31dU_EQr1Za0tyZ-14">
          <mxGeometry width="50" height="50" relative="1" as="geometry">
            <mxPoint x="670" y="435" as="sourcePoint" />
            <mxPoint x="740" y="390" as="targetPoint" />
          </mxGeometry>
        </mxCell>
        <mxCell id="0YPiS31dU_EQr1Za0tyZ-20" value="" style="endArrow=none;html=1;entryX=0;entryY=0.5;entryDx=0;entryDy=0;exitX=1;exitY=0.5;exitDx=0;exitDy=0;" edge="1" parent="1" source="0YPiS31dU_EQr1Za0tyZ-3" target="0YPiS31dU_EQr1Za0tyZ-15">
          <mxGeometry width="50" height="50" relative="1" as="geometry">
            <mxPoint x="680" y="445" as="sourcePoint" />
            <mxPoint x="750" y="400" as="targetPoint" />
          </mxGeometry>
        </mxCell>
        <mxCell id="0YPiS31dU_EQr1Za0tyZ-21" value="" style="endArrow=none;html=1;entryX=0;entryY=0.5;entryDx=0;entryDy=0;exitX=1;exitY=0.75;exitDx=0;exitDy=0;" edge="1" parent="1" source="0YPiS31dU_EQr1Za0tyZ-3" target="0YPiS31dU_EQr1Za0tyZ-16">
          <mxGeometry width="50" height="50" relative="1" as="geometry">
            <mxPoint x="690" y="455" as="sourcePoint" />
            <mxPoint x="760" y="410" as="targetPoint" />
          </mxGeometry>
        </mxCell>
        <mxCell id="0YPiS31dU_EQr1Za0tyZ-23" value="ID_Categoria" style="ellipse;whiteSpace=wrap;html=1;" vertex="1" parent="1">
          <mxGeometry x="70" y="380" width="80" height="30" as="geometry" />
        </mxCell>
        <mxCell id="0YPiS31dU_EQr1Za0tyZ-25" value="Nombre" style="ellipse;whiteSpace=wrap;html=1;" vertex="1" parent="1">
          <mxGeometry x="70" y="425" width="80" height="30" as="geometry" />
        </mxCell>
        <mxCell id="0YPiS31dU_EQr1Za0tyZ-27" value="Descripcion" style="ellipse;whiteSpace=wrap;html=1;" vertex="1" parent="1">
          <mxGeometry x="70" y="470" width="80" height="30" as="geometry" />
        </mxCell>
        <mxCell id="0YPiS31dU_EQr1Za0tyZ-29" value="N_Factura" style="ellipse;whiteSpace=wrap;html=1;" vertex="1" parent="1">
          <mxGeometry x="740" y="15" width="80" height="30" as="geometry" />
        </mxCell>
        <mxCell id="0YPiS31dU_EQr1Za0tyZ-30" value="Fecha" style="ellipse;whiteSpace=wrap;html=1;" vertex="1" parent="1">
          <mxGeometry x="740" y="50" width="80" height="30" as="geometry" />
        </mxCell>
        <mxCell id="0YPiS31dU_EQr1Za0tyZ-31" value="Subtotal" style="ellipse;whiteSpace=wrap;html=1;" vertex="1" parent="1">
          <mxGeometry x="740" y="90" width="80" height="30" as="geometry" />
        </mxCell>
        <mxCell id="0YPiS31dU_EQr1Za0tyZ-32" value="IVA" style="ellipse;whiteSpace=wrap;html=1;" vertex="1" parent="1">
          <mxGeometry x="740" y="135" width="80" height="30" as="geometry" />
        </mxCell>
        <mxCell id="0YPiS31dU_EQr1Za0tyZ-39" value="Precio_Total" style="ellipse;whiteSpace=wrap;html=1;" vertex="1" parent="1">
          <mxGeometry x="740" y="180" width="80" height="30" as="geometry" />
        </mxCell>
        <mxCell id="0YPiS31dU_EQr1Za0tyZ-44" value="" style="endArrow=none;html=1;entryX=0;entryY=0.5;entryDx=0;entryDy=0;exitX=1;exitY=0;exitDx=0;exitDy=0;" edge="1" parent="1" source="0YPiS31dU_EQr1Za0tyZ-2" target="0YPiS31dU_EQr1Za0tyZ-29">
          <mxGeometry width="50" height="50" relative="1" as="geometry">
            <mxPoint x="370" y="300" as="sourcePoint" />
            <mxPoint x="420" y="250" as="targetPoint" />
          </mxGeometry>
        </mxCell>
        <mxCell id="0YPiS31dU_EQr1Za0tyZ-47" value="" style="endArrow=none;html=1;entryX=0;entryY=0.5;entryDx=0;entryDy=0;exitX=1;exitY=0.5;exitDx=0;exitDy=0;" edge="1" parent="1" source="0YPiS31dU_EQr1Za0tyZ-2" target="0YPiS31dU_EQr1Za0tyZ-30">
          <mxGeometry width="50" height="50" relative="1" as="geometry">
            <mxPoint x="720" y="105" as="sourcePoint" />
            <mxPoint x="770" y="60" as="targetPoint" />
          </mxGeometry>
        </mxCell>
        <mxCell id="0YPiS31dU_EQr1Za0tyZ-48" value="" style="endArrow=none;html=1;entryX=0;entryY=0.5;entryDx=0;entryDy=0;exitX=1;exitY=0.75;exitDx=0;exitDy=0;" edge="1" parent="1" source="0YPiS31dU_EQr1Za0tyZ-2" target="0YPiS31dU_EQr1Za0tyZ-31">
          <mxGeometry width="50" height="50" relative="1" as="geometry">
            <mxPoint x="730" y="115" as="sourcePoint" />
            <mxPoint x="780" y="70" as="targetPoint" />
          </mxGeometry>
        </mxCell>
        <mxCell id="0YPiS31dU_EQr1Za0tyZ-49" value="" style="endArrow=none;html=1;entryX=0;entryY=0.5;entryDx=0;entryDy=0;exitX=1;exitY=1;exitDx=0;exitDy=0;" edge="1" parent="1" source="0YPiS31dU_EQr1Za0tyZ-2" target="0YPiS31dU_EQr1Za0tyZ-32">
          <mxGeometry width="50" height="50" relative="1" as="geometry">
            <mxPoint x="740" y="125" as="sourcePoint" />
            <mxPoint x="790" y="80" as="targetPoint" />
          </mxGeometry>
        </mxCell>
        <mxCell id="0YPiS31dU_EQr1Za0tyZ-50" value="" style="endArrow=none;html=1;entryX=0;entryY=0.5;entryDx=0;entryDy=0;" edge="1" parent="1" target="0YPiS31dU_EQr1Za0tyZ-39">
          <mxGeometry width="50" height="50" relative="1" as="geometry">
            <mxPoint x="667" y="137" as="sourcePoint" />
            <mxPoint x="800" y="90" as="targetPoint" />
          </mxGeometry>
        </mxCell>
        <mxCell id="0YPiS31dU_EQr1Za0tyZ-52" value="Posee" style="rhombus;whiteSpace=wrap;html=1;" vertex="1" parent="1">
          <mxGeometry x="400" y="65" width="80" height="80" as="geometry" />
        </mxCell>
        <mxCell id="0YPiS31dU_EQr1Za0tyZ-54" value="1" style="endArrow=none;html=1;exitX=1;exitY=0.5;exitDx=0;exitDy=0;" edge="1" parent="1" source="0YPiS31dU_EQr1Za0tyZ-4" target="0YPiS31dU_EQr1Za0tyZ-52">
          <mxGeometry width="50" height="50" relative="1" as="geometry">
            <mxPoint x="370" y="300" as="sourcePoint" />
            <mxPoint x="420" y="250" as="targetPoint" />
          </mxGeometry>
        </mxCell>
        <mxCell id="0YPiS31dU_EQr1Za0tyZ-55" value="N" style="endArrow=none;html=1;entryX=0;entryY=0.5;entryDx=0;entryDy=0;exitX=1;exitY=0.5;exitDx=0;exitDy=0;" edge="1" parent="1" source="0YPiS31dU_EQr1Za0tyZ-52" target="0YPiS31dU_EQr1Za0tyZ-2">
          <mxGeometry width="50" height="50" relative="1" as="geometry">
            <mxPoint x="760" y="145" as="sourcePoint" />
            <mxPoint x="810" y="100" as="targetPoint" />
          </mxGeometry>
        </mxCell>
        <mxCell id="0YPiS31dU_EQr1Za0tyZ-56" value="Contiene" style="rhombus;whiteSpace=wrap;html=1;" vertex="1" parent="1">
          <mxGeometry x="590" y="220" width="80" height="80" as="geometry" />
        </mxCell>
        <mxCell id="0YPiS31dU_EQr1Za0tyZ-57" value="N" style="endArrow=none;html=1;entryX=0.5;entryY=1;entryDx=0;entryDy=0;exitX=0.5;exitY=0;exitDx=0;exitDy=0;" edge="1" parent="1" source="0YPiS31dU_EQr1Za0tyZ-56" target="0YPiS31dU_EQr1Za0tyZ-2">
          <mxGeometry width="50" height="50" relative="1" as="geometry">
            <mxPoint x="490" y="115" as="sourcePoint" />
            <mxPoint x="580" y="115" as="targetPoint" />
          </mxGeometry>
        </mxCell>
        <mxCell id="0YPiS31dU_EQr1Za0tyZ-58" value="M" style="endArrow=none;html=1;exitX=0.5;exitY=0;exitDx=0;exitDy=0;entryX=0.5;entryY=1;entryDx=0;entryDy=0;" edge="1" parent="1" source="0YPiS31dU_EQr1Za0tyZ-3" target="0YPiS31dU_EQr1Za0tyZ-56">
          <mxGeometry width="50" height="50" relative="1" as="geometry">
            <mxPoint x="640" y="230" as="sourcePoint" />
            <mxPoint x="630" y="310" as="targetPoint" />
          </mxGeometry>
        </mxCell>
        <mxCell id="0YPiS31dU_EQr1Za0tyZ-59" value="Pertenece_a" style="rhombus;whiteSpace=wrap;html=1;" vertex="1" parent="1">
          <mxGeometry x="410" y="405" width="80" height="80" as="geometry" />
        </mxCell>
        <mxCell id="0YPiS31dU_EQr1Za0tyZ-60" value="1" style="endArrow=none;html=1;exitX=1;exitY=0.5;exitDx=0;exitDy=0;entryX=0;entryY=0.5;entryDx=0;entryDy=0;" edge="1" parent="1" source="0YPiS31dU_EQr1Za0tyZ-1" target="0YPiS31dU_EQr1Za0tyZ-59">
          <mxGeometry width="50" height="50" relative="1" as="geometry">
            <mxPoint x="370" y="300" as="sourcePoint" />
            <mxPoint x="420" y="250" as="targetPoint" />
          </mxGeometry>
        </mxCell>
        <mxCell id="0YPiS31dU_EQr1Za0tyZ-61" value="" style="endArrow=none;html=1;exitX=0;exitY=0.5;exitDx=0;exitDy=0;entryX=1;entryY=0.5;entryDx=0;entryDy=0;" edge="1" parent="1" source="0YPiS31dU_EQr1Za0tyZ-3" target="0YPiS31dU_EQr1Za0tyZ-59">
          <mxGeometry width="50" height="50" relative="1" as="geometry">
            <mxPoint x="330" y="450" as="sourcePoint" />
            <mxPoint x="420" y="450" as="targetPoint" />
          </mxGeometry>
        </mxCell>
        <mxCell id="0YPiS31dU_EQr1Za0tyZ-76" value="N" style="edgeLabel;html=1;align=center;verticalAlign=middle;resizable=0;points=[];" vertex="1" connectable="0" parent="0YPiS31dU_EQr1Za0tyZ-61">
          <mxGeometry x="0.2381" relative="1" as="geometry">
            <mxPoint as="offset" />
          </mxGeometry>
        </mxCell>
        <mxCell id="0YPiS31dU_EQr1Za0tyZ-62" value="" style="endArrow=none;html=1;exitX=1;exitY=0.5;exitDx=0;exitDy=0;entryX=0;entryY=0.25;entryDx=0;entryDy=0;" edge="1" parent="1" source="0YPiS31dU_EQr1Za0tyZ-23" target="0YPiS31dU_EQr1Za0tyZ-1">
          <mxGeometry width="50" height="50" relative="1" as="geometry">
            <mxPoint x="250" y="320" as="sourcePoint" />
            <mxPoint x="315" y="320" as="targetPoint" />
          </mxGeometry>
        </mxCell>
        <mxCell id="0YPiS31dU_EQr1Za0tyZ-63" value="" style="endArrow=none;html=1;exitX=1;exitY=0.5;exitDx=0;exitDy=0;entryX=0;entryY=0.5;entryDx=0;entryDy=0;" edge="1" parent="1" source="0YPiS31dU_EQr1Za0tyZ-25" target="0YPiS31dU_EQr1Za0tyZ-1">
          <mxGeometry width="50" height="50" relative="1" as="geometry">
            <mxPoint x="340" y="465" as="sourcePoint" />
            <mxPoint x="405" y="465" as="targetPoint" />
          </mxGeometry>
        </mxCell>
        <mxCell id="0YPiS31dU_EQr1Za0tyZ-64" value="" style="endArrow=none;html=1;exitX=1;exitY=0.5;exitDx=0;exitDy=0;entryX=0;entryY=0.75;entryDx=0;entryDy=0;" edge="1" parent="1" source="0YPiS31dU_EQr1Za0tyZ-27" target="0YPiS31dU_EQr1Za0tyZ-1">
          <mxGeometry width="50" height="50" relative="1" as="geometry">
            <mxPoint x="350" y="475" as="sourcePoint" />
            <mxPoint x="415" y="475" as="targetPoint" />
          </mxGeometry>
        </mxCell>
        <mxCell id="0YPiS31dU_EQr1Za0tyZ-66" value="N_Factura" style="ellipse;whiteSpace=wrap;html=1;" vertex="1" parent="1">
          <mxGeometry x="440" y="160" width="100" height="30" as="geometry" />
        </mxCell>
        <mxCell id="0YPiS31dU_EQr1Za0tyZ-67" value="ID_Producto" style="ellipse;whiteSpace=wrap;html=1;" vertex="1" parent="1">
          <mxGeometry x="440" y="195" width="100" height="30" as="geometry" />
        </mxCell>
        <mxCell id="0YPiS31dU_EQr1Za0tyZ-68" value="Precio_Unitario" style="ellipse;whiteSpace=wrap;html=1;" vertex="1" parent="1">
          <mxGeometry x="440" y="235" width="100" height="30" as="geometry" />
        </mxCell>
        <mxCell id="0YPiS31dU_EQr1Za0tyZ-69" value="Cantidad" style="ellipse;whiteSpace=wrap;html=1;" vertex="1" parent="1">
          <mxGeometry x="440" y="270" width="100" height="30" as="geometry" />
        </mxCell>
        <mxCell id="0YPiS31dU_EQr1Za0tyZ-70" value="Valor_Concepto" style="ellipse;whiteSpace=wrap;html=1;" vertex="1" parent="1">
          <mxGeometry x="440" y="310" width="100" height="30" as="geometry" />
        </mxCell>
        <mxCell id="0YPiS31dU_EQr1Za0tyZ-71" value="" style="endArrow=none;html=1;entryX=0;entryY=0.5;entryDx=0;entryDy=0;exitX=1;exitY=0.5;exitDx=0;exitDy=0;" edge="1" parent="1" source="0YPiS31dU_EQr1Za0tyZ-66" target="0YPiS31dU_EQr1Za0tyZ-56">
          <mxGeometry width="50" height="50" relative="1" as="geometry">
            <mxPoint x="370" y="300" as="sourcePoint" />
            <mxPoint x="420" y="250" as="targetPoint" />
          </mxGeometry>
        </mxCell>
        <mxCell id="0YPiS31dU_EQr1Za0tyZ-72" value="" style="endArrow=none;html=1;entryX=0;entryY=0.5;entryDx=0;entryDy=0;exitX=1;exitY=0.5;exitDx=0;exitDy=0;" edge="1" parent="1" source="0YPiS31dU_EQr1Za0tyZ-67" target="0YPiS31dU_EQr1Za0tyZ-56">
          <mxGeometry width="50" height="50" relative="1" as="geometry">
            <mxPoint x="550" y="185" as="sourcePoint" />
            <mxPoint x="600" y="270" as="targetPoint" />
          </mxGeometry>
        </mxCell>
        <mxCell id="0YPiS31dU_EQr1Za0tyZ-73" value="" style="endArrow=none;html=1;entryX=0;entryY=0.5;entryDx=0;entryDy=0;exitX=1;exitY=0.5;exitDx=0;exitDy=0;" edge="1" parent="1" source="0YPiS31dU_EQr1Za0tyZ-68" target="0YPiS31dU_EQr1Za0tyZ-56">
          <mxGeometry width="50" height="50" relative="1" as="geometry">
            <mxPoint x="560" y="195" as="sourcePoint" />
            <mxPoint x="610" y="280" as="targetPoint" />
          </mxGeometry>
        </mxCell>
        <mxCell id="0YPiS31dU_EQr1Za0tyZ-74" value="" style="endArrow=none;html=1;entryX=0;entryY=0.5;entryDx=0;entryDy=0;exitX=1;exitY=0.5;exitDx=0;exitDy=0;" edge="1" parent="1" source="0YPiS31dU_EQr1Za0tyZ-69" target="0YPiS31dU_EQr1Za0tyZ-56">
          <mxGeometry width="50" height="50" relative="1" as="geometry">
            <mxPoint x="570" y="205" as="sourcePoint" />
            <mxPoint x="620" y="290" as="targetPoint" />
          </mxGeometry>
        </mxCell>
        <mxCell id="0YPiS31dU_EQr1Za0tyZ-75" value="" style="endArrow=none;html=1;exitX=1;exitY=0.5;exitDx=0;exitDy=0;" edge="1" parent="1" source="0YPiS31dU_EQr1Za0tyZ-70">
          <mxGeometry width="50" height="50" relative="1" as="geometry">
            <mxPoint x="580" y="215" as="sourcePoint" />
            <mxPoint x="590" y="260" as="targetPoint" />
          </mxGeometry>
        </mxCell>
      </root>
    </mxGraphModel>
  </diagram>
</mxfile>
